<svg width="182" height="176" viewBox="0 0 182 176" fill="none" xmlns="http://www.w3.org/2000/svg">
<path d="M13.4622 90.0773C13.4588 90.2282 13.3964 90.3717 13.2885 90.4771C13.1806 90.5826 13.0356 90.6416 12.8847 90.6416L1.86082 90.6416C1.71115 90.6416 1.56759 90.5822 1.46176 90.4763C1.35593 90.3705 1.29651 90.227 1.29651 90.0773C1.29647 89.9264 1.35549 89.7815 1.46096 89.6735C1.56643 89.5656 1.70996 89.5033 1.86082 89.4998L12.8847 89.4998C13.0379 89.4998 13.1848 89.5607 13.2931 89.669C13.4014 89.7773 13.4622 89.9241 13.4622 90.0773Z" stroke="#664E9D" stroke-width="1.31237" stroke-miterlimit="10"/>
<path d="M14.9715 103.118C14.9702 103.251 14.9221 103.379 14.8357 103.48C14.7493 103.581 14.6301 103.648 14.4991 103.669L3.64572 105.586C3.57245 105.599 3.49728 105.597 3.42456 105.581C3.35184 105.565 3.28302 105.535 3.22203 105.492C3.16103 105.45 3.10909 105.395 3.06919 105.333C3.0293 105.27 3.00221 105.2 2.98953 105.126C2.97439 105.052 2.97436 104.975 2.98941 104.901C3.00447 104.827 3.03434 104.757 3.0772 104.694C3.12007 104.632 3.17503 104.578 3.23889 104.538C3.30275 104.497 3.37417 104.469 3.44887 104.457L14.3022 102.554C14.3756 102.539 14.4514 102.539 14.5248 102.554C14.5982 102.569 14.6678 102.599 14.7292 102.642C14.7906 102.685 14.8426 102.74 14.882 102.804C14.9214 102.868 14.9474 102.939 14.9584 103.013L14.9715 103.118Z" stroke="#664E9D" stroke-width="1.31237" stroke-miterlimit="10"/>
<path d="M18.7207 115.67C18.7197 115.788 18.6827 115.903 18.6147 115.999C18.5467 116.095 18.4509 116.168 18.3401 116.208L7.98548 119.975C7.84271 120.026 7.68563 120.019 7.54813 119.955C7.41063 119.891 7.30374 119.776 7.25056 119.634C7.20299 119.491 7.21184 119.335 7.27527 119.198C7.3387 119.062 7.45192 118.955 7.59179 118.899L17.9595 115.132C18.0293 115.107 18.1034 115.096 18.1774 115.1C18.2515 115.103 18.3241 115.122 18.3911 115.153C18.4582 115.185 18.5183 115.23 18.5681 115.285C18.6179 115.339 18.6564 115.404 18.6814 115.473L18.7207 115.67Z" stroke="#664E9D" stroke-width="1.31237" stroke-miterlimit="10"/>
<path d="M24.5955 127.39C24.5953 127.491 24.5685 127.59 24.5178 127.677C24.4671 127.765 24.3944 127.838 24.3068 127.888L14.7658 133.4C14.6335 133.476 14.4764 133.497 14.3288 133.458C14.1812 133.418 14.0552 133.322 13.9784 133.19C13.9056 133.057 13.8867 132.901 13.9258 132.754C13.9649 132.608 14.0589 132.482 14.1884 132.403L23.7425 126.904C23.8062 126.866 23.8768 126.841 23.9503 126.83C24.0237 126.82 24.0985 126.823 24.1705 126.842C24.2424 126.86 24.31 126.892 24.3694 126.937C24.4288 126.981 24.4789 127.037 24.5168 127.101C24.5668 127.189 24.5939 127.288 24.5955 127.39Z" stroke="#664E9D" stroke-width="1.31237" stroke-miterlimit="10"/>
<path d="M32.4158 137.916C32.4184 137.998 32.402 138.08 32.3678 138.155C32.3337 138.23 32.2827 138.297 32.2189 138.349L23.7672 145.436C23.7148 145.489 23.6524 145.53 23.5837 145.559C23.515 145.588 23.4414 145.602 23.367 145.602C23.2926 145.602 23.2189 145.588 23.1502 145.559C23.0815 145.53 23.0192 145.489 22.9667 145.436C22.8716 145.32 22.8253 145.172 22.8375 145.022C22.8497 144.873 22.9196 144.734 23.0323 144.635L31.484 137.548C31.5364 137.496 31.5988 137.454 31.6675 137.425C31.7362 137.397 31.8099 137.382 31.8843 137.382C31.9587 137.382 32.0324 137.397 32.101 137.425C32.1697 137.454 32.2321 137.496 32.2846 137.548C32.3716 137.651 32.4183 137.781 32.4158 137.916Z" stroke="#664E9D" stroke-width="1.31237" stroke-miterlimit="10"/>
<path d="M41.9683 146.964C41.966 147.1 41.9147 147.231 41.8239 147.332L34.7503 155.784C34.6405 155.888 34.4949 155.946 34.3434 155.946C34.192 155.946 34.0464 155.888 33.9366 155.784C33.8239 155.685 33.754 155.546 33.7418 155.397C33.7296 155.247 33.7759 155.099 33.871 154.983L40.9578 146.531C41.0654 146.428 41.2088 146.37 41.3581 146.37C41.5073 146.37 41.6508 146.428 41.7583 146.531C41.8218 146.585 41.8733 146.651 41.9094 146.726C41.9456 146.8 41.9657 146.882 41.9683 146.964Z" stroke="#664E9D" stroke-width="1.31237" stroke-miterlimit="10"/>
<path d="M52.9076 154.137C52.906 154.238 52.8789 154.338 52.8289 154.426L47.3169 164.019C47.2801 164.084 47.2308 164.141 47.1719 164.187C47.113 164.233 47.0456 164.266 46.9736 164.286C46.9015 164.305 46.8264 164.31 46.7524 164.301C46.6784 164.291 46.6071 164.267 46.5426 164.229C46.4106 164.152 46.3144 164.026 46.275 163.879C46.2356 163.731 46.2563 163.574 46.3326 163.442L51.8446 153.901C51.8813 153.836 51.9306 153.779 51.9896 153.733C52.0485 153.687 52.1159 153.654 52.1879 153.634C52.2599 153.615 52.3351 153.61 52.409 153.619C52.483 153.629 52.5543 153.653 52.6189 153.691C52.6992 153.737 52.7674 153.801 52.8176 153.879C52.8678 153.956 52.8987 154.045 52.9076 154.137Z" stroke="#664E9D" stroke-width="1.31237" stroke-miterlimit="10"/>
<path d="M64.9365 159.34C64.9493 159.405 64.9493 159.472 64.9365 159.537L61.1044 169.892C61.0512 170.033 60.9443 170.149 60.8068 170.213C60.6693 170.276 60.5122 170.284 60.3695 170.233C60.2981 170.208 60.2324 170.169 60.1764 170.118C60.1204 170.067 60.0751 170.006 60.0433 169.937C60.0115 169.869 59.9938 169.795 59.9912 169.719C59.9886 169.644 60.0012 169.568 60.0282 169.498L63.7947 159.143C63.8479 159.001 63.9548 158.886 64.0923 158.822C64.2298 158.758 64.3869 158.751 64.5297 158.802C64.6464 158.836 64.749 158.907 64.8223 159.004C64.8956 159.1 64.9357 159.218 64.9365 159.34Z" stroke="#664E9D" stroke-width="1.31237" stroke-miterlimit="10"/>
<path d="M77.7114 162.363L77.7114 162.468L75.7954 173.322C75.7827 173.395 75.7557 173.465 75.7158 173.528C75.6759 173.591 75.6239 173.645 75.5629 173.688C75.5019 173.73 75.4331 173.761 75.3604 173.777C75.2876 173.793 75.2125 173.794 75.1392 173.781C75.065 173.77 74.9939 173.744 74.9301 173.704C74.8663 173.665 74.8112 173.613 74.7682 173.552C74.7252 173.49 74.6952 173.421 74.68 173.347C74.6648 173.274 74.6648 173.198 74.6799 173.125L76.5828 162.271C76.6118 162.134 76.6899 162.012 76.8024 161.928C76.9149 161.844 77.0542 161.804 77.1941 161.815C77.334 161.826 77.465 161.888 77.5627 161.989C77.6603 162.09 77.7179 162.223 77.7246 162.363L77.7114 162.363Z" stroke="#664E9D" stroke-width="1.31237" stroke-miterlimit="10"/>
<path d="M90.7996 163.139L90.7996 174.163C90.7996 174.313 90.7401 174.456 90.6343 174.562C90.5285 174.668 90.385 174.727 90.2353 174.727C90.0844 174.727 89.9395 174.668 89.8315 174.563C89.7236 174.457 89.6613 174.314 89.6578 174.163L89.6578 163.139C89.6578 162.986 89.7187 162.839 89.827 162.731C89.9353 162.622 90.0821 162.562 90.2353 162.562C90.3861 162.565 90.5297 162.627 90.6351 162.735C90.7406 162.843 90.7996 162.988 90.7996 163.139Z" stroke="#664E9D" stroke-width="1.31237" stroke-miterlimit="10"/>
<path d="M86.5144 1.70405L86.5144 12.728C86.5144 12.8811 86.4536 13.028 86.3453 13.1363C86.2371 13.2446 86.0902 13.3054 85.937 13.3054C85.7862 13.302 85.6426 13.2396 85.5372 13.1317C85.4317 13.0238 85.3726 12.8789 85.3727 12.728L85.3727 1.70405C85.3727 1.55438 85.4321 1.41084 85.538 1.30501C85.6438 1.19917 85.7874 1.13972 85.937 1.13972C86.0879 1.13968 86.2328 1.19871 86.3407 1.30418C86.4487 1.40965 86.511 1.55319 86.5144 1.70405Z" stroke="#664E9D" stroke-width="1.31237" stroke-miterlimit="10"/>
<path d="M73.4804 14.2508C73.4791 14.3835 73.431 14.5116 73.3446 14.6124C73.2582 14.7132 73.139 14.7803 73.008 14.802C72.9345 14.817 72.8588 14.817 72.7853 14.8018C72.7119 14.7866 72.6424 14.7566 72.581 14.7136C72.5195 14.6706 72.4675 14.6155 72.4281 14.5517C72.3887 14.488 72.3627 14.4168 72.3518 14.3426L70.4357 3.48929C70.4206 3.41585 70.4207 3.34011 70.4359 3.26669C70.4511 3.19327 70.4811 3.12371 70.5241 3.06229C70.5671 3.00087 70.6221 2.94886 70.6859 2.90946C70.7497 2.87005 70.8209 2.84406 70.895 2.8331C71.0446 2.8062 71.1987 2.83933 71.324 2.92532C71.4493 3.0113 71.5357 3.14321 71.5644 3.29244L73.4673 14.1458L73.4804 14.2508Z" stroke="#664E9D" stroke-width="1.31237" stroke-miterlimit="10"/>
<path d="M60.9192 18.0087C60.9164 18.126 60.8788 18.2399 60.811 18.3357C60.7432 18.4315 60.6484 18.505 60.5386 18.5467C60.3942 18.597 60.2357 18.588 60.0979 18.5216C59.9601 18.4551 59.8543 18.3367 59.8037 18.1924L56.0372 7.83776C56.0122 7.7671 56.0014 7.69221 56.0053 7.61736C56.0093 7.54252 56.0279 7.46919 56.0602 7.40155C56.0925 7.33392 56.1378 7.2733 56.1935 7.22317C56.2492 7.17304 56.3143 7.13437 56.3849 7.10938C56.4556 7.08439 56.5305 7.07357 56.6053 7.07752C56.6802 7.08148 56.7535 7.10014 56.8212 7.13243C56.8888 7.16473 56.9494 7.21002 56.9995 7.26574C57.0497 7.32146 57.0883 7.3865 57.1133 7.45716L60.8798 17.8118C60.9055 17.8743 60.9188 17.9411 60.9192 18.0087Z" stroke="#664E9D" stroke-width="1.31237" stroke-miterlimit="10"/>
<path d="M49.188 23.8834C49.1895 23.9815 49.1647 24.0783 49.1162 24.1636C49.0678 24.249 48.9974 24.3199 48.9124 24.3689C48.78 24.4452 48.6229 24.4659 48.4753 24.4265C48.3277 24.3872 48.2017 24.291 48.1249 24.1589L42.613 14.618C42.5755 14.5535 42.5513 14.4822 42.5415 14.4082C42.5318 14.3342 42.5369 14.2591 42.5564 14.187C42.5759 14.115 42.6096 14.0476 42.6553 13.9887C42.7011 13.9297 42.7581 13.8805 42.823 13.8437C42.9553 13.7675 43.1125 13.7467 43.2601 13.7861C43.4076 13.8254 43.5336 13.9217 43.6104 14.0537L49.1224 23.5946C49.1643 23.6852 49.1867 23.7836 49.188 23.8834Z" stroke="#664E9D" stroke-width="1.31237" stroke-miterlimit="10"/>
<path d="M38.664 31.7041C38.6651 31.8205 38.6303 31.9345 38.5642 32.0303C38.4981 32.1261 38.404 32.1991 38.2948 32.2394C38.1856 32.2796 38.0665 32.2851 37.9541 32.2551C37.8416 32.225 37.7412 32.161 37.6666 32.0716L30.5797 23.6199C30.5283 23.5636 30.4889 23.4975 30.4638 23.4255C30.4386 23.3535 30.4284 23.2772 30.4336 23.2011C30.4388 23.125 30.4593 23.0508 30.494 22.9829C30.5287 22.915 30.5767 22.8548 30.6353 22.806C30.6939 22.7572 30.7617 22.7207 30.8348 22.6989C30.9078 22.677 30.9846 22.6702 31.0603 22.6788C31.1361 22.6874 31.2093 22.7113 31.2756 22.749C31.3419 22.7867 31.3998 22.8374 31.4459 22.8981L38.5327 31.3367C38.6198 31.4391 38.6665 31.5697 38.664 31.7041Z" stroke="#664E9D" stroke-width="1.31237" stroke-miterlimit="10"/>
<path d="M29.6189 41.236C29.6214 41.3704 29.5747 41.5011 29.4876 41.6035C29.4406 41.6617 29.3824 41.71 29.3165 41.7456C29.2507 41.7811 29.1784 41.8032 29.1039 41.8105C29.0294 41.8179 28.9541 41.8103 28.8826 41.7883C28.811 41.7662 28.7446 41.7302 28.6871 41.6822L20.2485 34.5954C20.1908 34.548 20.143 34.4897 20.1078 34.4238C20.0726 34.358 20.0507 34.2858 20.0434 34.2115C20.0361 34.1371 20.0435 34.0621 20.0652 33.9906C20.0869 33.9191 20.1224 33.8526 20.1698 33.7949C20.2172 33.7371 20.2755 33.6893 20.3414 33.6541C20.4072 33.6189 20.4794 33.597 20.5537 33.5897C20.6281 33.5824 20.7031 33.5898 20.7746 33.6115C20.8461 33.6332 20.9126 33.6687 20.9703 33.7161L29.422 40.8029C29.4844 40.8564 29.5343 40.9229 29.5683 40.9977C29.6023 41.0725 29.6196 41.1539 29.6189 41.236Z" stroke="#664E9D" stroke-width="1.31237" stroke-miterlimit="10"/>
<path d="M22.458 52.1873C22.4564 52.2886 22.4294 52.3879 22.3793 52.476C22.3002 52.6055 22.1742 52.6995 22.0276 52.7386C21.881 52.7777 21.725 52.7589 21.5919 52.686L12.0509 47.1741C11.9802 47.139 11.9174 47.0897 11.8665 47.0294C11.8155 46.9691 11.7775 46.899 11.7547 46.8234C11.7319 46.7478 11.7248 46.6683 11.734 46.5899C11.7431 46.5115 11.7682 46.4358 11.8078 46.3674C11.8474 46.2991 11.9005 46.2396 11.964 46.1926C12.0275 46.1457 12.0999 46.1122 12.1768 46.0943C12.2537 46.0764 12.3334 46.0745 12.4111 46.0887C12.4888 46.1028 12.5627 46.1328 12.6284 46.1767L22.1693 51.6886C22.2569 51.7392 22.3297 51.8119 22.3804 51.8994C22.431 51.9869 22.4578 52.0862 22.458 52.1873Z" stroke="#664E9D" stroke-width="1.31237" stroke-miterlimit="10"/>
<path d="M17.2521 64.2806L17.2521 64.4774C17.1989 64.6194 17.0921 64.7348 16.9546 64.7986C16.8171 64.8624 16.66 64.8696 16.5172 64.8187L6.16259 61.0521C6.08277 61.0338 6.00776 60.9987 5.94255 60.9491C5.87734 60.8996 5.8234 60.8367 5.78435 60.7647C5.74529 60.6927 5.72201 60.6133 5.71602 60.5316C5.71004 60.4499 5.72149 60.3679 5.74963 60.291C5.77776 60.2141 5.82194 60.144 5.87923 60.0855C5.93651 60.0269 6.00559 59.9813 6.08188 59.9515C6.15817 59.9217 6.23996 59.9085 6.32175 59.9127C6.40354 59.9169 6.48347 59.9385 6.55628 59.976L16.9109 63.7425C17.0143 63.7888 17.1018 63.8645 17.1624 63.9602C17.2231 64.0559 17.2543 64.1673 17.2521 64.2806Z" stroke="#664E9D" stroke-width="1.31237" stroke-miterlimit="10"/>
<path d="M14.2236 76.982L14.2236 77.087C14.1949 77.2362 14.1086 77.3681 13.9833 77.4541C13.858 77.5401 13.7039 77.5732 13.5543 77.5463L2.70095 75.6302C2.55303 75.6041 2.42155 75.5203 2.33541 75.3973C2.24927 75.2742 2.21555 75.122 2.24165 74.974C2.26776 74.8261 2.35153 74.6946 2.47459 74.6085C2.59765 74.5223 2.74991 74.4886 2.89784 74.5147L13.7512 76.4177C13.8821 76.4443 14.0002 76.5147 14.086 76.6172C14.1718 76.7197 14.2203 76.8483 14.2236 76.982Z" stroke="#664E9D" stroke-width="1.31237" stroke-miterlimit="10"/>
<path d="M168.37 90.077C168.374 90.2279 168.436 90.3714 168.544 90.4769C168.652 90.5824 168.797 90.6414 168.948 90.6414L179.971 90.6414C180.121 90.6414 180.265 90.5819 180.371 90.4761C180.476 90.3702 180.536 90.2267 180.536 90.077C180.536 89.9261 180.477 89.7812 180.371 89.6733C180.266 89.5654 180.122 89.503 179.971 89.4996L168.948 89.4996C168.794 89.4996 168.648 89.5604 168.539 89.6687C168.431 89.777 168.37 89.9239 168.37 90.077Z" stroke="#664E9D" stroke-width="1.31237" stroke-miterlimit="10"/>
<path d="M166.861 103.11C166.862 103.243 166.91 103.371 166.997 103.472C167.083 103.573 167.202 103.64 167.333 103.662L178.187 105.578C178.26 105.591 178.335 105.59 178.408 105.574C178.48 105.558 178.549 105.527 178.61 105.485C178.671 105.442 178.723 105.388 178.763 105.325C178.803 105.262 178.83 105.192 178.843 105.118C178.858 105.044 178.858 104.968 178.843 104.893C178.828 104.819 178.798 104.749 178.755 104.686C178.712 104.624 178.657 104.571 178.593 104.53C178.53 104.489 178.458 104.462 178.383 104.449L167.53 102.546C167.457 102.531 167.381 102.531 167.307 102.546C167.234 102.561 167.164 102.592 167.103 102.635C167.042 102.678 166.99 102.733 166.95 102.796C166.911 102.86 166.885 102.931 166.874 103.005L166.861 103.11Z" stroke="#664E9D" stroke-width="1.31237" stroke-miterlimit="10"/>
<path d="M163.112 115.67C163.113 115.788 163.15 115.903 163.218 115.999C163.286 116.095 163.381 116.168 163.492 116.208L173.847 119.975C173.99 120.026 174.147 120.019 174.284 119.955C174.422 119.891 174.529 119.776 174.582 119.634C174.629 119.491 174.62 119.335 174.557 119.198C174.494 119.062 174.38 118.955 174.24 118.899L163.873 115.132C163.803 115.107 163.729 115.096 163.655 115.1C163.581 115.103 163.508 115.122 163.441 115.153C163.374 115.185 163.314 115.23 163.264 115.285C163.214 115.339 163.176 115.404 163.151 115.473L163.112 115.67Z" stroke="#664E9D" stroke-width="1.31237" stroke-miterlimit="10"/>
<path d="M157.237 127.39C157.237 127.491 157.264 127.59 157.314 127.677C157.365 127.765 157.438 127.838 157.525 127.888L167.066 133.4C167.199 133.476 167.356 133.497 167.504 133.458C167.651 133.418 167.777 133.322 167.854 133.19C167.927 133.057 167.946 132.901 167.906 132.754C167.867 132.608 167.773 132.482 167.644 132.403L158.09 126.904C158.026 126.866 157.955 126.841 157.882 126.83C157.809 126.82 157.734 126.823 157.662 126.842C157.59 126.86 157.522 126.892 157.463 126.937C157.403 126.981 157.353 127.037 157.316 127.101C157.265 127.189 157.238 127.288 157.237 127.39Z" stroke="#664E9D" stroke-width="1.31237" stroke-miterlimit="10"/>
<path d="M149.416 137.916C149.414 137.998 149.43 138.08 149.464 138.155C149.499 138.23 149.55 138.297 149.613 138.349L158.065 145.436C158.117 145.489 158.18 145.53 158.249 145.559C158.317 145.588 158.391 145.602 158.465 145.602C158.54 145.602 158.613 145.588 158.682 145.559C158.751 145.53 158.813 145.489 158.866 145.436C158.961 145.32 159.007 145.172 158.995 145.022C158.983 144.873 158.913 144.734 158.8 144.635L150.348 137.548C150.296 137.496 150.233 137.454 150.165 137.425C150.096 137.397 150.022 137.382 149.948 137.382C149.874 137.382 149.8 137.397 149.731 137.425C149.663 137.454 149.6 137.496 149.548 137.548C149.461 137.651 149.414 137.781 149.416 137.916Z" stroke="#664E9D" stroke-width="1.31237" stroke-miterlimit="10"/>
<path d="M139.864 146.957C139.866 147.092 139.918 147.223 140.008 147.324L147.082 155.776C147.192 155.88 147.337 155.938 147.489 155.938C147.64 155.938 147.786 155.88 147.896 155.776C148.008 155.677 148.078 155.538 148.09 155.389C148.103 155.239 148.056 155.091 147.961 154.975L140.874 146.524C140.767 146.42 140.623 146.362 140.474 146.362C140.325 146.362 140.182 146.42 140.074 146.524C140.01 146.577 139.959 146.643 139.923 146.718C139.887 146.792 139.867 146.874 139.864 146.957Z" stroke="#664E9D" stroke-width="1.31237" stroke-miterlimit="10"/>
<path d="M128.925 154.137C128.926 154.238 128.953 154.338 129.003 154.426L134.515 164.019C134.552 164.084 134.601 164.141 134.66 164.187C134.719 164.233 134.787 164.266 134.859 164.286C134.931 164.305 135.006 164.31 135.08 164.301C135.154 164.291 135.225 164.267 135.29 164.229C135.422 164.152 135.518 164.026 135.557 163.879C135.597 163.731 135.576 163.574 135.5 163.442L129.988 153.901C129.951 153.836 129.902 153.779 129.843 153.733C129.784 153.687 129.716 153.654 129.644 153.634C129.572 153.615 129.497 153.61 129.423 153.619C129.349 153.629 129.278 153.653 129.213 153.691C129.133 153.737 129.065 153.801 129.015 153.879C128.964 153.956 128.934 154.045 128.925 154.137Z" stroke="#664E9D" stroke-width="1.31237" stroke-miterlimit="10"/>
<path d="M116.896 159.332C116.883 159.397 116.883 159.464 116.896 159.529L120.728 169.884C120.781 170.026 120.888 170.141 121.025 170.205C121.163 170.269 121.32 170.276 121.463 170.225C121.534 170.2 121.6 170.161 121.656 170.11C121.712 170.06 121.757 169.998 121.789 169.93C121.821 169.861 121.839 169.787 121.841 169.711C121.844 169.636 121.831 169.561 121.804 169.49L118.038 159.135C117.984 158.993 117.877 158.878 117.74 158.814C117.602 158.75 117.445 158.743 117.303 158.794C117.186 158.828 117.083 158.899 117.01 158.996C116.937 159.093 116.897 159.211 116.896 159.332Z" stroke="#664E9D" stroke-width="1.31237" stroke-miterlimit="10"/>
<path d="M104.12 162.363L104.12 162.468L106.036 173.322C106.049 173.395 106.076 173.465 106.116 173.528C106.155 173.591 106.207 173.645 106.268 173.688C106.329 173.73 106.398 173.761 106.471 173.777C106.544 173.793 106.619 173.794 106.692 173.781C106.766 173.77 106.837 173.744 106.901 173.704C106.965 173.665 107.02 173.613 107.063 173.552C107.106 173.49 107.136 173.421 107.151 173.347C107.166 173.274 107.167 173.198 107.151 173.125L105.248 162.271C105.219 162.134 105.141 162.012 105.029 161.928C104.916 161.844 104.777 161.804 104.637 161.815C104.497 161.826 104.366 161.888 104.269 161.989C104.171 162.09 104.113 162.223 104.107 162.363L104.12 162.363Z" stroke="#664E9D" stroke-width="1.31237" stroke-miterlimit="10"/>
<path d="M95.3178 1.70405L95.3178 12.728C95.3178 12.8811 95.3786 13.028 95.4869 13.1363C95.5952 13.2446 95.7421 13.3054 95.8952 13.3054C96.0461 13.302 96.1896 13.2396 96.2951 13.1317C96.4006 13.0238 96.4596 12.8789 96.4596 12.728L96.4596 1.70405C96.4596 1.55438 96.4001 1.41084 96.2943 1.30501C96.1885 1.19917 96.0449 1.13972 95.8952 1.13972C95.7443 1.13968 95.5995 1.19871 95.4915 1.30418C95.3836 1.40965 95.3213 1.55319 95.3178 1.70405Z" stroke="#664E9D" stroke-width="1.31237" stroke-miterlimit="10"/>
<path d="M108.352 14.2508C108.353 14.3835 108.401 14.5116 108.488 14.6124C108.574 14.7132 108.693 14.7803 108.824 14.802C108.898 14.817 108.974 14.817 109.047 14.8018C109.12 14.7866 109.19 14.7566 109.251 14.7136C109.313 14.6706 109.365 14.6155 109.404 14.5517C109.444 14.488 109.47 14.4168 109.48 14.3426L111.397 3.48929C111.412 3.41585 111.412 3.34011 111.396 3.26669C111.381 3.19327 111.351 3.12371 111.308 3.06229C111.265 3.00087 111.21 2.94886 111.146 2.90946C111.083 2.87005 111.011 2.84406 110.937 2.8331C110.788 2.8062 110.634 2.83933 110.508 2.92532C110.383 3.0113 110.297 3.14321 110.268 3.29244L108.365 14.1458L108.352 14.2508Z" stroke="#664E9D" stroke-width="1.31237" stroke-miterlimit="10"/>
<path d="M120.913 18.0087C120.916 18.126 120.954 18.2399 121.021 18.3357C121.089 18.4315 121.184 18.505 121.294 18.5467C121.438 18.597 121.597 18.588 121.734 18.5216C121.872 18.4551 121.978 18.3367 122.029 18.1924L125.795 7.83776C125.82 7.7671 125.831 7.69221 125.827 7.61736C125.823 7.54252 125.804 7.46919 125.772 7.40155C125.74 7.33392 125.694 7.2733 125.639 7.22317C125.583 7.17304 125.518 7.13437 125.447 7.10938C125.377 7.08439 125.302 7.07357 125.227 7.07752C125.152 7.08148 125.079 7.10014 125.011 7.13243C124.943 7.16473 124.883 7.21002 124.833 7.26574C124.783 7.32146 124.744 7.3865 124.719 7.45716L120.952 17.8118C120.927 17.8743 120.913 17.9411 120.913 18.0087Z" stroke="#664E9D" stroke-width="1.31237" stroke-miterlimit="10"/>
<path d="M132.644 23.8834C132.643 23.9815 132.668 24.0783 132.716 24.1636C132.764 24.249 132.835 24.3199 132.92 24.3689C133.052 24.4452 133.209 24.4659 133.357 24.4265C133.505 24.3872 133.631 24.291 133.707 24.1589L139.219 14.618C139.257 14.5535 139.281 14.4822 139.291 14.4082C139.3 14.3342 139.295 14.2591 139.276 14.187C139.256 14.115 139.223 14.0476 139.177 13.9887C139.131 13.9297 139.074 13.8805 139.009 13.8437C138.877 13.7675 138.72 13.7467 138.572 13.7861C138.425 13.8254 138.299 13.9217 138.222 14.0537L132.71 23.5946C132.668 23.6852 132.646 23.7836 132.644 23.8834Z" stroke="#664E9D" stroke-width="1.31237" stroke-miterlimit="10"/>
<path d="M143.168 31.7041C143.167 31.8205 143.202 31.9345 143.268 32.0303C143.334 32.1261 143.428 32.1991 143.537 32.2394C143.647 32.2796 143.766 32.2851 143.878 32.2551C143.991 32.225 144.091 32.161 144.166 32.0716L151.253 23.6199C151.304 23.5636 151.343 23.4975 151.369 23.4255C151.394 23.3535 151.404 23.2772 151.399 23.2011C151.394 23.125 151.373 23.0508 151.338 22.9829C151.304 22.915 151.256 22.8548 151.197 22.806C151.138 22.7572 151.071 22.7207 150.997 22.6989C150.924 22.677 150.848 22.6702 150.772 22.6788C150.696 22.6874 150.623 22.7113 150.557 22.749C150.49 22.7867 150.432 22.8374 150.386 22.8981L143.3 31.3367C143.212 31.4391 143.166 31.5697 143.168 31.7041Z" stroke="#664E9D" stroke-width="1.31237" stroke-miterlimit="10"/>
<path d="M152.213 41.236C152.211 41.3704 152.258 41.5011 152.345 41.6035C152.392 41.6617 152.45 41.71 152.516 41.7456C152.582 41.7811 152.654 41.8032 152.728 41.8105C152.803 41.8179 152.878 41.8103 152.95 41.7883C153.021 41.7662 153.088 41.7302 153.145 41.6822L161.584 34.5954C161.641 34.548 161.689 34.4897 161.724 34.4238C161.76 34.358 161.782 34.2858 161.789 34.2115C161.796 34.1371 161.789 34.0621 161.767 33.9906C161.745 33.9191 161.71 33.8526 161.662 33.7949C161.615 33.7371 161.557 33.6893 161.491 33.6541C161.425 33.6189 161.353 33.597 161.279 33.5897C161.204 33.5824 161.129 33.5898 161.058 33.6115C160.986 33.6332 160.92 33.6687 160.862 33.7161L152.41 40.8029C152.348 40.8564 152.298 40.9229 152.264 40.9977C152.23 41.0725 152.213 41.1539 152.213 41.236Z" stroke="#664E9D" stroke-width="1.31237" stroke-miterlimit="10"/>
<path d="M159.374 52.1873C159.376 52.2886 159.403 52.3879 159.453 52.476C159.532 52.6055 159.658 52.6995 159.805 52.7386C159.951 52.7777 160.107 52.7589 160.24 52.686L169.781 47.1741C169.852 47.139 169.915 47.0897 169.966 47.0294C170.017 46.9691 170.055 46.899 170.078 46.8234C170.1 46.7478 170.107 46.6683 170.098 46.5899C170.089 46.5115 170.064 46.4358 170.024 46.3674C169.985 46.2991 169.932 46.2396 169.868 46.1926C169.805 46.1457 169.732 46.1122 169.655 46.0943C169.579 46.0764 169.499 46.0745 169.421 46.0887C169.343 46.1028 169.27 46.1328 169.204 46.1767L159.663 51.6886C159.575 51.7392 159.503 51.8119 159.452 51.8994C159.401 51.9869 159.374 52.0862 159.374 52.1873Z" stroke="#664E9D" stroke-width="1.31237" stroke-miterlimit="10"/>
<path d="M164.579 64.2806L164.579 64.4774C164.632 64.6194 164.739 64.7348 164.877 64.7986C165.014 64.8624 165.171 64.8696 165.314 64.8187L175.669 61.0521C175.749 61.0338 175.824 60.9987 175.889 60.9491C175.954 60.8996 176.008 60.8367 176.047 60.7647C176.086 60.6927 176.109 60.6133 176.115 60.5316C176.121 60.4499 176.11 60.3679 176.082 60.291C176.054 60.2141 176.009 60.144 175.952 60.0855C175.895 60.0269 175.826 59.9813 175.749 59.9515C175.673 59.9217 175.591 59.9085 175.51 59.9127C175.428 59.9169 175.348 59.9385 175.275 59.976L164.92 63.7425C164.817 63.7888 164.73 63.8645 164.669 63.9602C164.608 64.0559 164.577 64.1673 164.579 64.2806Z" stroke="#664E9D" stroke-width="1.31237" stroke-miterlimit="10"/>
<path d="M167.609 76.9817L167.609 77.0867C167.637 77.2359 167.724 77.3679 167.849 77.4538C167.974 77.5398 168.128 77.573 168.278 77.546L179.131 75.63C179.279 75.6039 179.411 75.5201 179.497 75.397C179.583 75.274 179.617 75.1217 179.59 74.9738C179.564 74.8259 179.481 74.6944 179.358 74.6082C179.234 74.5221 179.082 74.4884 178.934 74.5145L168.081 76.4174C167.95 76.4441 167.832 76.5145 167.746 76.617C167.66 76.7195 167.612 76.8481 167.609 76.9817Z" stroke="#664E9D" stroke-width="1.31237" stroke-miterlimit="10"/>
</svg>
