<svg width="783" height="90" viewBox="0 0 783 90" fill="none" xmlns="http://www.w3.org/2000/svg">
<g clip-path="url(#clip0_10_118)">
<g clip-path="url(#clip1_10_118)">
<path d="M-54.3181 32.1919C-29.8593 32.1919 -24.8593 87.8319 -0.400379 87.8319C24.0585 87.8319 23.9907 2.19189 48.4491 2.19189C72.9081 2.19189 72.9081 87.8319 97.3671 87.8319C121.826 87.8319 121.826 2.19189 146.353 2.19189C170.879 2.19189 170.812 87.8319 195.27 87.8319C219.729 87.8319 219.729 2.19189 244.188 2.19189C268.647 2.19189 268.715 87.8319 293.174 87.8319C317.632 87.8319 317.632 2.19189 342.091 2.19189C366.55 2.19189 366.618 87.8319 391.077 87.8319C415.536 87.8319 415.536 2.19189 439.995 2.19189C464.454 2.19189 464.521 87.8319 488.98 87.8319C513.439 87.8319 513.439 2.19189 537.898 2.19189C562.357 2.19189 562.357 87.8319 586.883 87.8319C611.41 87.8319 611.342 2.19189 635.801 2.19189C660.26 2.19189 660.328 87.8319 684.787 87.8319C709.245 87.8319 709.516 2.19189 733.772 2.19189C758.028 2.19189 758.299 87.8319 782.758 87.8319C807.216 87.8319 807.284 2.19189 831.472 2.19189" stroke="#664E9D" stroke-width="2" stroke-miterlimit="10"/>
</g>
</g>
<defs>
<clipPath id="clip0_10_118">
<rect width="783" height="90" fill="white"/>
</clipPath>
<clipPath id="clip1_10_118">
<rect width="887" height="88" fill="white" transform="translate(-55 1)"/>
</clipPath>
</defs>
</svg>
